<svg width="44" height="44" viewBox="0 0 44 44" fill="none" xmlns="http://www.w3.org/2000/svg"><rect x="9.167" y="14.667" width="3.667" height="14.667" rx="1.833" fill="#5EF0AA"/><path fill-rule="evenodd" clip-rule="evenodd" d="M3.667 34.833a7.333 7.333 0 1014.666 0 7.333 7.333 0 00-14.666 0zm11 0a3.667 3.667 0 11-7.334 0 3.667 3.667 0 017.334 0z" fill="#fff"/><rect opacity=".3" x="31.167" y="14.667" width="3.667" height="14.667" rx="1.833" fill="#fff"/><path fill-rule="evenodd" clip-rule="evenodd" d="M25.667 34.833a7.333 7.333 0 1014.666 0 7.333 7.333 0 00-14.666 0zm11 0a3.667 3.667 0 11-7.334 0 3.667 3.667 0 017.334 0zm-33-25.666a7.333 7.333 0 1014.666 0 7.333 7.333 0 00-14.666 0zm11 0a3.667 3.667 0 11-7.334 0 3.667 3.667 0 017.334 0zm11 0a7.333 7.333 0 1014.666 0 7.333 7.333 0 00-14.666 0zm11 0a3.667 3.667 0 11-7.334 0 3.667 3.667 0 017.334 0z" fill="#fff"/></svg>