<svg width="44" height="44" viewBox="0 0 44 44" fill="none" xmlns="http://www.w3.org/2000/svg"><path opacity=".3" fill-rule="evenodd" clip-rule="evenodd" d="M13.303 34.703l-2.342 2.822A20.125 20.125 0 013.667 22c0-6.07 2.7-11.703 7.276-15.51l2.345 2.819A16.459 16.459 0 007.333 22a16.46 16.46 0 005.97 12.703zm17.394 0l2.342 2.822A20.125 20.125 0 0040.333 22c0-6.07-2.7-11.703-7.276-15.51l-2.345 2.82A16.459 16.459 0 0136.667 22a16.46 16.46 0 01-5.97 12.703zm-4.703-5.627l2.333 2.83A12.809 12.809 0 0033 22c0-3.87-1.725-7.46-4.645-9.882l-2.341 2.822a9.142 9.142 0 013.32 7.06 9.143 9.143 0 01-3.34 7.076zm-10.32 2.83l2.332-2.83A9.143 9.143 0 0114.666 22a9.143 9.143 0 013.32-7.06l-2.34-2.822A12.808 12.808 0 0011 22c0 3.882 1.736 7.484 4.673 9.905z" fill="#fff"/><path fill-rule="evenodd" clip-rule="evenodd" d="M22 25.667a3.667 3.667 0 100-7.334 3.667 3.667 0 000 7.334z" fill="#5EF0AA"/></svg>