<svg width="44" height="44" viewBox="0 0 44 44" fill="none" xmlns="http://www.w3.org/2000/svg"><path d="M18.333 25.667H9.167s-1.834-.315-1.834-1.834C7.333 22.315 9.167 22 9.167 22H22v12.833s0 1.834-1.833 1.834c-1.834 0-1.834-1.834-1.834-1.834v-9.166zM27.5 16.5h9.167s1.833.315 1.833 1.833c0 1.52-1.833 1.834-1.833 1.834H23.833V7.333s0-1.833 1.834-1.833C27.5 5.5 27.5 7.333 27.5 7.333V16.5z" fill="#fff"/><rect x="5.815" y="35.593" width="11" height="3.667" rx="1.833" transform="rotate(-45 5.815 35.593)" fill="#DADADA"/><rect x="29.648" y="11.759" width="11" height="3.667" rx="1.833" transform="rotate(-45 29.648 11.76)" fill="#5EF0AA"/></svg>