<svg width="44" height="44" viewBox="0 0 44 44" fill="none" xmlns="http://www.w3.org/2000/svg"><path fill-rule="evenodd" clip-rule="evenodd" d="M12.833 5.5a7.333 7.333 0 000 14.667h18.334a7.333 7.333 0 000-14.667H12.833zm3.667 7.333a3.667 3.667 0 11-7.333 0 3.667 3.667 0 017.333 0z" fill="#fff"/><path opacity=".3" fill-rule="evenodd" clip-rule="evenodd" d="M12.833 23.833a7.333 7.333 0 000 14.667h18.334a7.333 7.333 0 100-14.667H12.833zm22 7.334a3.667 3.667 0 11-7.333 0 3.667 3.667 0 017.333 0z" fill="#fff"/><path fill-rule="evenodd" clip-rule="evenodd" d="M12.833 16.5a3.667 3.667 0 100-7.333 3.667 3.667 0 000 7.333z" fill="#5EF0AA"/></svg>