<svg width="118" height="103" viewBox="0 0 118 103" fill="none" xmlns="http://www.w3.org/2000/svg"><g filter="url(#filter0_f)"><path fill-rule="evenodd" clip-rule="evenodd" d="M44.169 44.373l-3.072 9.312c-.279.844.06 1.77.819 2.234l9.373 5.39a4.56 4.56 0 002.907.638l17.78-2.072a1.916 1.916 0 001.586-1.269l3.236-9.232a1.915 1.915 0 00-.85-2.291l-9.488-5.478a4.56 4.56 0 00-2.798-.582l-17.893 2.048a1.916 1.916 0 00-1.6 1.303z" fill="#61E8FF" fill-opacity=".39"/></g><path fill-rule="evenodd" clip-rule="evenodd" d="M76.797 47.338l-3.235 9.232a1.916 1.916 0 01-1.585 1.269l-17.781 2.072a4.56 4.56 0 01-2.907-.639l-9.373-5.389a1.915 1.915 0 01-.902-1.41L41 51.029c.051.6.377-.879.916-.55l9.373 5.39a4.56 4.56 0 002.907.638l17.78-2.072a1.916 1.916 0 001.586-1.269l3.235-7.73c.046-.13.108 1.019.108 1.019s-.037.68-.108.883z" fill="#B1BAC9"/><mask id="mask0" maskUnits="userSpaceOnUse" x="41" y="38" width="36" height="21"><path fill-rule="evenodd" clip-rule="evenodd" d="M41 38h35.906v20.984H41V38z" fill="#fff"/></mask><g mask="url(#mask0)"><path fill-rule="evenodd" clip-rule="evenodd" d="M44.169 41.38l-3.072 9.31c-.279.846.06 1.771.819 2.235l9.373 5.39a4.56 4.56 0 002.907.638l17.78-2.072a1.916 1.916 0 001.586-1.269l3.236-9.231a1.915 1.915 0 00-.85-2.292L66.46 38.61a4.56 4.56 0 00-2.798-.582l-17.893 2.048a1.916 1.916 0 00-1.6 1.303z" fill="#fff"/></g><defs><filter id="filter0_f" x=".226" y=".219" width="117.454" height="102.533" filterUnits="userSpaceOnUse" color-interpolation-filters="sRGB"><feFlood flood-opacity="0" result="BackgroundImageFix"/><feBlend in="SourceGraphic" in2="BackgroundImageFix" result="shape"/><feGaussianBlur stdDeviation="20.387" result="effect1_foregroundBlur"/></filter></defs></svg>