<svg width="186" height="219" viewBox="0 0 186 219" fill="none" xmlns="http://www.w3.org/2000/svg"><path opacity=".34" d="M72.274 57.284l36.334 19.373c5.554 2.962 5.671 10.88.207 14.005l-42.25 24.152c-5.33 3.048-5.383 10.716-.094 13.836l48.436 28.57" stroke="#B1BAC9"/><path d="M73.06 111.057l30.68-17.586" stroke="#9C73FF"/><g filter="url(#filter0_f)"><path fill-rule="evenodd" clip-rule="evenodd" d="M44.169 44.373l-3.072 9.312c-.279.844.06 1.77.819 2.234l9.373 5.39a4.56 4.56 0 002.907.638l17.78-2.072a1.916 1.916 0 001.586-1.269l3.236-9.232a1.915 1.915 0 00-.85-2.291l-9.488-5.478a4.56 4.56 0 00-2.798-.582l-17.893 2.048a1.916 1.916 0 00-1.6 1.303z" fill="#61E8FF" fill-opacity=".39"/></g><path fill-rule="evenodd" clip-rule="evenodd" d="M76.797 47.338l-3.235 9.232a1.916 1.916 0 01-1.585 1.269l-17.781 2.072a4.56 4.56 0 01-2.907-.639l-9.373-5.389a1.915 1.915 0 01-.902-1.41L41 51.029c.051.6.377-.879.916-.55l9.373 5.39a4.56 4.56 0 002.907.638l17.78-2.072a1.916 1.916 0 001.586-1.269l3.235-7.73c.046-.13.108 1.019.108 1.019s-.037.68-.108.883z" fill="#B1BAC9"/><mask id="mask0" maskUnits="userSpaceOnUse" x="41" y="38" width="36" height="21"><path fill-rule="evenodd" clip-rule="evenodd" d="M41 38h35.906v20.984H41V38z" fill="#fff"/></mask><g mask="url(#mask0)"><path fill-rule="evenodd" clip-rule="evenodd" d="M44.169 41.38l-3.072 9.31c-.279.846.06 1.771.819 2.235l9.373 5.39a4.56 4.56 0 002.907.638l17.78-2.072a1.916 1.916 0 001.586-1.269l3.236-9.231a1.915 1.915 0 00-.85-2.292L66.46 38.61a4.56 4.56 0 00-2.798-.582l-17.893 2.048a1.916 1.916 0 00-1.6 1.303z" fill="#fff"/></g><g filter="url(#filter1_f)"><path fill-rule="evenodd" clip-rule="evenodd" d="M98.46 153.131l-4.316 13.083a2.692 2.692 0 001.15 3.14l13.17 7.571a6.406 6.406 0 004.085.898l24.983-2.911a2.693 2.693 0 002.228-1.783l4.545-12.971a2.69 2.69 0 00-1.194-3.22l-13.33-7.697a6.409 6.409 0 00-3.933-.817l-25.139 2.877a2.693 2.693 0 00-2.25 1.83z" fill="#61E8FF" fill-opacity=".39"/></g><path fill-rule="evenodd" clip-rule="evenodd" d="M144.305 157.297l-4.546 12.971a2.69 2.69 0 01-2.228 1.783l-24.983 2.911a6.405 6.405 0 01-4.084-.898l-13.17-7.571a2.69 2.69 0 01-1.267-1.982l-.02-2.029c.072.843.53-1.235 1.287-.772l13.17 7.572a6.411 6.411 0 004.084.898l24.983-2.912a2.69 2.69 0 002.228-1.782l4.546-10.862c.063-.182.151 1.432.151 1.432s-.051.955-.151 1.241z" fill="#B1BAC9"/><mask id="mask1" maskUnits="userSpaceOnUse" x="94" y="144" width="51" height="30"><path fill-rule="evenodd" clip-rule="evenodd" d="M94.008 144.176h50.449v29.483h-50.45v-29.483z" fill="#fff"/></mask><g mask="url(#mask1)"><path fill-rule="evenodd" clip-rule="evenodd" d="M98.46 148.924l-4.316 13.083a2.693 2.693 0 001.15 3.14l13.17 7.571a6.406 6.406 0 004.085.898l24.983-2.911a2.693 2.693 0 002.228-1.783l4.545-12.971a2.69 2.69 0 00-1.194-3.22l-13.33-7.697a6.409 6.409 0 00-3.933-.817l-25.139 2.877a2.693 2.693 0 00-2.25 1.83z" fill="#fff"/></g><defs><filter id="filter0_f" x=".226" y=".219" width="117.454" height="102.533" filterUnits="userSpaceOnUse" color-interpolation-filters="sRGB"><feFlood flood-opacity="0" result="BackgroundImageFix"/><feBlend in="SourceGraphic" in2="BackgroundImageFix" result="shape"/><feGaussianBlur stdDeviation="20.387" result="effect1_foregroundBlur"/></filter><filter id="filter1_f" x="53.233" y="107.608" width="131.998" height="111.032" filterUnits="userSpaceOnUse" color-interpolation-filters="sRGB"><feFlood flood-opacity="0" result="BackgroundImageFix"/><feBlend in="SourceGraphic" in2="BackgroundImageFix" result="shape"/><feGaussianBlur stdDeviation="20.387" result="effect1_foregroundBlur"/></filter></defs></svg>