<svg width="94" height="132" viewBox="0 0 94 132" fill="none" xmlns="http://www.w3.org/2000/svg"><path fill-rule="evenodd" clip-rule="evenodd" d="M2 73.931a9.31 9.31 0 004.646 8.058l75.065 43.45c4.655 2.694 10.48-.665 10.48-6.043V57.574a9.31 9.31 0 00-4.645-8.058L15.974 8.09C9.767 4.496 2 8.975 2 16.146v57.785z" fill="#1D1D26" stroke="#fff" stroke-width="2.328"/><path fill-rule="evenodd" clip-rule="evenodd" d="M70.568 70.595c.285 1.057-.1 2.08-.86 2.285-.76.205-1.607-.486-1.892-1.543-.285-1.056.1-2.08.86-2.284.76-.205 1.607.486 1.892 1.542z" fill="#B4EE73"/><path fill-rule="evenodd" clip-rule="evenodd" d="M17.648 64.715c.284 1.057-.1 2.08-.86 2.285-.76.204-1.608-.486-1.893-1.543-.285-1.057.1-2.08.86-2.284.76-.205 1.608.485 1.893 1.542z" fill="#FF7362"/><path fill-rule="evenodd" clip-rule="evenodd" d="M41.168 52.955c.285 1.057-.1 2.08-.86 2.285-.76.204-1.608-.486-1.892-1.543-.285-1.057.1-2.08.86-2.284.76-.205 1.607.485 1.892 1.542z" fill="#B4EE73"/><path fill-rule="evenodd" clip-rule="evenodd" d="M52.928 70.595c.285 1.057-.1 2.08-.86 2.285-.76.205-1.607-.486-1.892-1.543-.285-1.056.1-2.08.86-2.284.76-.205 1.607.486 1.892 1.542z" fill="#FF7362"/></svg>