<svg width="28" height="28" viewBox="0 0 28 28" fill="none" xmlns="http://www.w3.org/2000/svg"><path d="M26.653 4.332C26.063 2.148 21.676 0 14 0S1.936 2.148 1.347 4.332a.499.499 0 00-.074.25v18.837c0 .082.022.16.06.229C1.932 26.14 7.312 28 14 28c6.672 0 12.043-1.853 12.664-4.335a.503.503 0 00.063-.247V4.582a.498.498 0 00-.074-.25zm-.984 12.97a1.255 1.255 0 01-.132.335 1.725 1.725 0 01-.23.33 2.764 2.764 0 01-.316.319c-.084.073-.17.145-.268.217-.042.031-.087.061-.13.091-.116.08-.236.159-.368.236-.035.021-.072.041-.108.061a8.56 8.56 0 01-.481.253l-.067.031c-.191.09-.39.18-.604.265l-.018.007c-1.156.462-2.635.85-4.359 1.105l-.026.003c-.335.05-.678.093-1.031.132l-.176.016c-.308.032-.62.062-.94.085-.147.01-.3.016-.45.025-.241.014-.48.03-.727.039a35.026 35.026 0 01-2.476-.002c-.248-.008-.486-.025-.728-.038-.149-.009-.303-.015-.45-.025-.32-.024-.631-.053-.94-.085-.058-.006-.118-.01-.176-.017a29.114 29.114 0 01-1.057-.135c-1.723-.255-3.202-.643-4.358-1.105a10.804 10.804 0 01-.622-.271l-.068-.031a8.018 8.018 0 01-.48-.253c-.036-.02-.074-.04-.109-.061a5.894 5.894 0 01-.367-.236c-.043-.03-.089-.06-.13-.092a4.2 4.2 0 01-.268-.216 2.66 2.66 0 01-.429-.46 1.899 1.899 0 01-.19-.34 1.233 1.233 0 01-.06-.185c-.018-.081-.04-.163-.04-.245 0-.058.008-.116.017-.172a.508.508 0 00-.016-.227v-3.78c.014.014.032.026.047.04a5.1 5.1 0 00.351.288c1.918 1.45 5.753 2.578 11.311 2.578 5.535 0 9.36-1.118 11.286-2.56.154-.112.292-.227.423-.345v3.779a.508.508 0 00-.016.227c.01.056.016.114.016.172 0 .082-.02.164-.04.247zm.04-10.535v3.78a.508.508 0 00-.016.226 1 1 0 01.016.172c0 .082-.02.165-.04.247a1.25 1.25 0 01-.132.336 1.725 1.725 0 01-.23.33 2.764 2.764 0 01-.316.319c-.084.073-.17.145-.268.217l-.13.091c-.116.08-.236.159-.368.236-.035.021-.072.04-.108.061a8.56 8.56 0 01-.481.253l-.067.031c-.191.09-.39.179-.604.264l-.018.008c-1.156.461-2.635.85-4.359 1.104l-.026.004c-.335.05-.678.093-1.031.132l-.176.016c-.308.032-.62.062-.94.085-.147.01-.3.016-.45.025-.241.014-.48.03-.727.039a35.026 35.026 0 01-2.476-.002c-.248-.008-.486-.025-.728-.038-.149-.01-.303-.015-.45-.025-.32-.024-.631-.053-.94-.085-.058-.007-.118-.01-.176-.017a29.114 29.114 0 01-1.057-.135c-1.723-.255-3.202-.643-4.358-1.105a10.804 10.804 0 01-.622-.271l-.068-.031a8.018 8.018 0 01-.48-.253c-.036-.02-.074-.04-.109-.061a5.848 5.848 0 01-.367-.236c-.043-.03-.089-.06-.13-.092a4.2 4.2 0 01-.268-.217c-.046-.04-.091-.079-.133-.12a2.66 2.66 0 01-.296-.34 1.887 1.887 0 01-.19-.34 1.233 1.233 0 01-.06-.184c-.018-.081-.04-.164-.04-.246 0-.057.008-.115.017-.172a.508.508 0 00-.016-.226v-3.78c.061.056.13.11.197.165.037.03.07.061.11.092.152.12.317.239.496.354.037.024.079.048.117.072a8.713 8.713 0 00.662.372c.185.094.38.187.586.276.033.014.064.03.098.044.239.101.492.198.756.292.073.026.149.05.224.075.21.071.426.139.651.205l.243.07c.298.082.606.16.928.233l.137.028a23.241 23.241 0 001.196.227c.288.047.586.09.89.13.079.01.154.022.233.031.379.046.771.085 1.174.12l.303.02c.322.024.652.043.989.058a39.846 39.846 0 001.72.041c.462 0 .91-.01 1.348-.025.125-.004.247-.01.37-.016.337-.015.667-.034.989-.058l.303-.02a30.77 30.77 0 001.174-.12l.232-.031a27.482 27.482 0 001.203-.183c.304-.054.599-.112.884-.174l.137-.028c.322-.072.63-.151.928-.233l.243-.07c.224-.066.441-.134.651-.205l.224-.075c.264-.094.518-.19.756-.292.034-.014.065-.03.098-.044a10.897 10.897 0 00.773-.375 8.38 8.38 0 00.475-.273c.038-.024.08-.048.117-.072.179-.115.344-.233.497-.354.038-.03.072-.061.109-.092.066-.055.136-.11.197-.165zM14 1.018c6.9 0 11.71 2.012 11.71 3.818 0 1.807-4.81 3.819-11.71 3.819-6.9 0-11.71-2.012-11.71-3.819C2.29 3.03 7.1 1.018 14 1.018zm11.71 22.249a.498.498 0 00-.017.069c-.289 1.76-5.056 3.646-11.693 3.646S2.596 25.097 2.307 23.336a.559.559 0 00-.016-.067v-4.284c.014.014.032.027.047.04a5.1 5.1 0 00.351.288c1.918 1.45 5.753 2.578 11.311 2.578 5.535 0 9.36-1.118 11.286-2.56.154-.112.292-.227.423-.345v4.281z" fill="#5EF0AA"/></svg>