<svg width="22" height="28" viewBox="0 0 22 28" fill="none" xmlns="http://www.w3.org/2000/svg"><path d="M13.882 23.333c-.9 0-1.633.733-1.633 1.634 0 .9.733 1.633 1.633 1.633.901 0 1.634-.733 1.634-1.633 0-.901-.733-1.634-1.634-1.634zm0 2.334a.7.7 0 11.002-1.402.7.7 0 01-.002 1.402zm2.1-8.401c1.03 0 1.867-.837 1.867-1.866a1.868 1.868 0 10-1.867 1.866zm0-2.8a.934.934 0 010 1.867.934.934 0 010-1.867zM4.782 5.6c.12 0 .24-.046.33-.137l.934-.934a.466.466 0 10-.66-.66l-.934.934a.466.466 0 00.33.796z" fill="#5EF0AA"/><path d="M21.582 13.882c0-.41-.16-.797-.45-1.087l-.26-.26a2.096 2.096 0 00-1.642-3.65 2.12 2.12 0 00.019-.252c0-1.158-.943-2.1-2.1-2.1-.085 0-.17.008-.252.018a2.09 2.09 0 00.018-.252c0-1.157-.942-2.1-2.1-2.1-.085 0-.169.009-.252.02.01-.084.019-.167.019-.253 0-1.158-.942-2.1-2.1-2.1-.61 0-1.177.268-1.57.71l-.37-.37L8.786.448c-.6-.6-1.575-.6-2.174 0L.867 6.195a1.54 1.54 0 000 2.174l1.756 1.756 2.291 2.292a2.094 2.094 0 00-1.065 1.816c0 .73.375 1.372.941 1.75a.69.69 0 00.106.112l5.02 5v.839h-.934V28h12.134v-6.066h-.934v-1.415a3.93 3.93 0 001.4-3.02c0-.811-.253-1.6-.716-2.264l.266-.266c.29-.29.45-.676.45-1.087zm-.933-2.916c0 .359-.165.69-.437.909l-1.639-1.639a1.166 1.166 0 012.076.73zm-2.333-2.333c0 .358-.165.69-.438.908L16.24 7.903a1.166 1.166 0 012.076.73zM15.982 6.3c0 .358-.165.69-.437.908L13.907 5.57a1.166 1.166 0 012.075.73zm-3.5-3.5a1.165 1.165 0 01.73 2.075l-1.639-1.639a1.17 1.17 0 01.91-.437zM1.527 7.71a.606.606 0 010-.855L7.272 1.11a.6.6 0 01.2-.132c.032-.014.069-.013.103-.02a.586.586 0 01.248 0c.035.007.072.006.105.02.072.03.14.073.198.132l1.097 1.096-6.6 6.6L1.527 7.71zm8.355-4.844l.55.55 2.334 2.333.267.267 2.066 2.066.267.268 2.066 2.066.268.267 2.333 2.333.439.439a.604.604 0 010 .854l-.204.204-5.542 5.542a.605.605 0 01-.854 0l-3.722-3.722h.465c1.158 0 2.1-.942 2.1-2.1 0-1.158-.942-2.1-2.1-2.1H5.95L3.282 9.465l6.6-6.6zm-4.185 10.23l.194-.023c.019-.003.038-.007.057-.007h4.667a1.168 1.168 0 010 2.334H5.948a1.168 1.168 0 01-1.166-1.167c0-.557.393-1.022.915-1.138zm4.219 13.97v-4.2h3.932a2.604 2.604 0 012.601 2.602v1.599H9.916zm10.266 0h-2.8v-1.598c0-1.03-.445-1.955-1.15-2.602h3.95v4.2zm.012-11.159a3.019 3.019 0 01-.76 4.015l-.185.14v1.871h-8.4v-1.268l-.165-.14a1.485 1.485 0 00-.084-.065l-4.143-4.128H8.83l4.382 4.383c.3.3.693.449 1.087.449s.787-.15 1.087-.45l4.808-4.807z" fill="#5EF0AA"/></svg>