<svg width="28" height="28" viewBox="0 0 28 28" fill="none" xmlns="http://www.w3.org/2000/svg"><path d="M22.67 19.42a.447.447 0 01-.309-.122l-5.195-4.874a.45.45 0 11.619-.657l5.195 4.874a.45.45 0 01-.31.78zm-17.341 0a.452.452 0 01-.31-.78l5.197-4.873a.452.452 0 01.619.657l-5.198 4.874a.447.447 0 01-.308.123z" fill="#5EF0AA"/><path d="M25.743 23.952H2.257A2.26 2.26 0 010 21.695V6.304a2.26 2.26 0 012.257-2.257h23.486A2.26 2.26 0 0128 6.304v15.391a2.26 2.26 0 01-2.257 2.257zM2.257 4.95c-.746 0-1.354.607-1.354 1.354v15.391c0 .747.608 1.354 1.354 1.354h23.486c.747 0 1.354-.607 1.354-1.354V6.304c0-.747-.608-1.354-1.354-1.354H2.257z" fill="#5EF0AA"/><path d="M14 16.268c-.6 0-1.2-.2-1.658-.598L.75 5.557a.453.453 0 01-.044-.637.454.454 0 01.638-.044L12.936 14.99c.576.503 1.552.503 2.128 0L26.642 4.893a.452.452 0 01.594.68L15.658 15.67a2.52 2.52 0 01-1.658.599z" fill="#5EF0AA"/></svg>