<svg width="28" height="28" viewBox="0 0 28 28" fill="none" xmlns="http://www.w3.org/2000/svg"><path d="M26.558 10.889H23.94a.978.978 0 01-.93-.62.978.978 0 01.219-1.097L25.08 7.32c.272-.272.422-.634.422-1.019 0-.385-.15-.747-.422-1.02l-2.361-2.36c-.545-.545-1.494-.546-2.04 0l-1.851 1.85a.978.978 0 01-1.096.22.978.978 0 01-.62-.93v-2.62A1.445 1.445 0 0015.67 0h-3.34c-.794 0-1.441.647-1.441 1.441v2.62a.978.978 0 01-.62.93.977.977 0 01-1.097-.22L7.32 2.922c-.545-.546-1.494-.545-2.039 0l-2.36 2.36a1.433 1.433 0 00-.423 1.02c0 .385.15.747.422 1.02l1.852 1.851a.98.98 0 01.218 1.096.977.977 0 01-.929.62h-2.62C.647 10.889 0 11.537 0 12.33v3.34c0 .795.647 1.441 1.441 1.441h2.62a.98.98 0 01.93.62.978.978 0 01-.219 1.097L2.92 20.68a1.433 1.433 0 00-.422 1.019c0 .385.15.747.422 1.02l2.361 2.36c.545.546 1.494.547 2.04 0l1.851-1.851a.978.978 0 011.096-.218c.39.161.62.508.62.929v2.62c0 .794.648 1.441 1.442 1.441h3.34c.794 0 1.44-.647 1.44-1.442V23.94a.98.98 0 01.621-.93.977.977 0 011.096.219l1.852 1.852c.546.545 1.495.544 2.04 0l2.36-2.361c.272-.272.422-.635.422-1.02s-.15-.747-.422-1.02l-1.852-1.851a.98.98 0 01-.218-1.096.978.978 0 01.93-.62h2.62c.794 0 1.441-.647 1.441-1.442v-3.34c0-.794-.647-1.441-1.442-1.441zm.405 4.78a.405.405 0 01-.405.405H23.94a2.01 2.01 0 00-1.887 1.261 2.01 2.01 0 00.442 2.227l1.852 1.851a.405.405 0 010 .573l-2.36 2.36a.405.405 0 01-.573 0l-1.851-1.852a2.012 2.012 0 00-2.227-.442 2.011 2.011 0 00-1.26 1.887v2.62a.405.405 0 01-.405.404h-3.34a.405.405 0 01-.404-.405V23.94a2.01 2.01 0 00-1.261-1.887 2.014 2.014 0 00-2.227.442l-1.851 1.852a.405.405 0 01-.573 0l-2.36-2.36a.405.405 0 010-.573l1.852-1.852a2.011 2.011 0 00.442-2.226 2.011 2.011 0 00-1.887-1.26h-2.62a.405.405 0 01-.404-.405v-3.34c0-.223.182-.404.404-.404h2.62a2.01 2.01 0 001.887-1.261 2.01 2.01 0 00-.442-2.227L3.653 6.587a.405.405 0 010-.573l2.361-2.36a.405.405 0 01.573 0l1.851 1.851a2.012 2.012 0 002.227.443 2.01 2.01 0 001.26-1.887v-2.62c0-.222.182-.404.405-.404h3.34c.223 0 .404.182.404.404v2.62a2.01 2.01 0 001.261 1.887 2.01 2.01 0 002.227-.442l1.851-1.852a.405.405 0 01.573 0l2.36 2.36a.405.405 0 010 .573L22.494 8.44a2.011 2.011 0 00-.442 2.226 2.011 2.011 0 001.887 1.261h2.62c.223 0 .404.181.404.404v3.34z" fill="#5EF0AA"/><path d="M14 9.333A4.672 4.672 0 009.333 14 4.672 4.672 0 0014 18.667 4.672 4.672 0 0018.667 14 4.672 4.672 0 0014 9.333zm0 8.297A3.635 3.635 0 0110.37 14c0-2 1.629-3.63 3.63-3.63A3.634 3.634 0 0117.63 14 3.634 3.634 0 0114 17.63z" fill="#5EF0AA"/></svg>