<svg width="29" height="28" viewBox="0 0 29 28" fill="none" xmlns="http://www.w3.org/2000/svg"><g clip-path="url(#clip0)" fill="#5EF0AA"><path d="M14.359 0a.466.466 0 00-.467.467V6.67a.466.466 0 10.933 0V.942c6.99.246 12.6 6.01 12.6 13.058 0 7.205-5.861 13.067-13.066 13.067-7.205 0-13.067-5.862-13.067-13.067 0-3.481 1.353-6.757 3.81-9.223a.466.466 0 10-.66-.66A13.91 13.91 0 00.359 14c0 7.72 6.28 14 14 14s14-6.28 14-14-6.28-14-14-14z"/><path d="M13.684 15.648a1.66 1.66 0 002.52.198 1.661 1.661 0 00-.198-2.521l-6.04-4.37a.467.467 0 00-.652.652l4.37 6.041zm1.774-1.568a.73.73 0 11-1.019 1.02l-2.666-3.684 3.685 2.664z"/></g><defs><clipPath id="clip0"><path fill="#fff" transform="translate(.359)" d="M0 0h28v28H0z"/></clipPath></defs></svg>