<svg width="209" height="227" viewBox="0 0 209 227" fill="none" xmlns="http://www.w3.org/2000/svg"><path opacity=".3" fill-rule="evenodd" clip-rule="evenodd" d="M97.246 127.771V0C55.856 22.16 22.502 49.212 0 79.563v127.773c22.502-30.353 55.856-57.403 97.246-79.565z" fill="#D5E9FF"/><path d="M41.142 181.611v-78.848" stroke="#5AB700" stroke-width="2" stroke-linecap="round" stroke-linejoin="round"/><path d="M50.68 172.708v-34.337" stroke="#FF7362" stroke-width="2" stroke-linecap="round" stroke-linejoin="round"/><path d="M60.218 165.078v-66.13" stroke="#FB4329" stroke-width="2" stroke-linecap="round" stroke-linejoin="round"/><path d="M69.12 158.084v-40.696" stroke="#5AB700" stroke-width="2" stroke-linecap="round" stroke-linejoin="round"/><path d="M79.93 151.089v-21.62" stroke="#FD0000" stroke-width="2" stroke-linecap="round" stroke-linejoin="round"/><path d="M89.468 145.366v-26.707" stroke="#5AB700" stroke-width="2" stroke-linecap="round" stroke-linejoin="round"/><mask id="mask0" maskUnits="userSpaceOnUse" x="111" y="150" width="54" height="58"><path fill-rule="evenodd" clip-rule="evenodd" d="M164.667 150.022h-53.292v57.273h53.292v-57.273z" fill="#fff"/></mask><g mask="url(#mask0)"><path fill-rule="evenodd" clip-rule="evenodd" d="M164.667 167.515l-18.591-3.296-18.06-12.458c-5.143-3.08 2.458-1.717-2.689 1.348l4.461 5.148-18.413-6.521v31.783h.012c.061 1.963 1.336 3.916 3.843 5.418l26.943 16.039c5.143 3.08 13.485 3.093 18.631.029h.001c2.637-1.571 3.914-3.644 3.85-5.708h.012v-31.782z" fill="#39475B"/></g><path fill-rule="evenodd" clip-rule="evenodd" d="M160.797 173.21c-5.156 3.066-13.513 3.053-18.665-.029l-26.993-16.049c-5.152-3.082-5.149-8.067.007-11.133 5.157-3.066 13.513-3.054 18.666.028l26.992 16.05c5.153 3.082 5.15 8.066-.007 11.133z" fill="#000"/><g filter="url(#filter0_f)"><path d="M160.797 170.03v0c-5.156 3.067-13.513 3.054-18.665-.028l-26.993-16.05c-5.152-3.082-5.149-8.066.007-11.132 5.157-3.067 13.513-3.054 18.666.028l26.992 16.049c5.153 3.082 5.15 8.067-.007 11.133" stroke="#C6AFFF" stroke-width="3"/></g><mask id="mask1" maskUnits="userSpaceOnUse" x="111" y="111" width="54" height="59"><path fill-rule="evenodd" clip-rule="evenodd" d="M164.667 111.869h-53.292v57.273h53.292v-57.273z" fill="#fff"/></mask><g mask="url(#mask1)"><path fill-rule="evenodd" clip-rule="evenodd" d="M164.667 129.363l-18.591-3.296-18.06-12.459c-5.143-3.08 2.458-1.716-2.689 1.348l4.461 5.149-18.413-6.521v31.782h.012c.061 1.963 1.336 3.917 3.843 5.419l26.943 16.039c5.143 3.08 13.485 3.093 18.631.028h.001c2.637-1.57 3.914-3.644 3.85-5.707h.012v-31.782z" fill="#39475B"/></g><path fill-rule="evenodd" clip-rule="evenodd" d="M160.797 135.057c-5.156 3.066-13.513 3.054-18.665-.028l-26.993-16.05c-5.152-3.082-5.149-8.066.007-11.132 5.157-3.067 13.513-3.054 18.666.028l26.992 16.049c5.153 3.082 5.15 8.067-.007 11.133z" fill="#8091A9"/><mask id="mask2" maskUnits="userSpaceOnUse" x="54" y="169" width="54" height="58"><path fill-rule="evenodd" clip-rule="evenodd" d="M107.438 169.097h-53.29v57.273h53.29v-57.273z" fill="#fff"/></mask><g mask="url(#mask2)"><path fill-rule="evenodd" clip-rule="evenodd" d="M107.438 186.591l-18.59-3.296-18.06-12.459c-5.143-3.08 2.458-1.716-2.689 1.348l4.46 5.149-18.412-6.521v31.782h.012c.061 1.963 1.336 3.917 3.843 5.419l26.943 16.039c5.143 3.08 13.485 3.093 18.631.028h.001c2.637-1.57 3.914-3.644 3.85-5.707h.011v-31.782z" fill="#39475B"/></g><path fill-rule="evenodd" clip-rule="evenodd" d="M103.569 192.285c-5.156 3.067-13.513 3.054-18.665-.028l-26.992-16.05c-5.153-3.082-5.15-8.066.006-11.132 5.157-3.067 13.513-3.054 18.666.028l26.992 16.05c5.153 3.082 5.15 8.066-.007 11.132z" fill="#000"/><g filter="url(#filter1_f)"><path d="M103.569 189.106v0c-5.156 3.066-13.513 3.054-18.666-.028l-26.992-16.05c-5.153-3.082-5.15-8.066.007-11.133 5.156-3.066 13.513-3.053 18.665.029l26.993 16.049c5.152 3.082 5.149 8.066-.007 11.133" stroke="#00FFFB" stroke-width="3"/></g><mask id="mask3" maskUnits="userSpaceOnUse" x="54" y="130" width="54" height="59"><path fill-rule="evenodd" clip-rule="evenodd" d="M107.438 130.945h-53.29v57.273h53.29v-57.273z" fill="#fff"/></mask><g mask="url(#mask3)"><path fill-rule="evenodd" clip-rule="evenodd" d="M107.438 148.438l-18.59-3.296-18.06-12.458c-5.143-3.08 2.458-1.716-2.689 1.348l4.46 5.149-18.412-6.521v31.782h.012c.061 1.963 1.336 3.917 3.843 5.419L84.945 185.9c5.143 3.08 13.485 3.093 18.631.028h.001c2.637-1.57 3.914-3.644 3.85-5.707h.011v-31.783z" fill="#39475B"/></g><path fill-rule="evenodd" clip-rule="evenodd" d="M103.569 154.133c-5.156 3.066-13.513 3.054-18.666-.028l-26.992-16.05c-5.153-3.082-5.15-8.066.007-11.133 5.156-3.066 13.513-3.053 18.665.029L103.576 143c5.152 3.082 5.149 8.066-.007 11.133z" fill="#8091A9"/><path d="M179.316 178.566s3.192 2.243 6.942 1.495c3.751-.747 4.316-8.894 7.708-10.69 3.392-1.796 3.746 1.796 5.544 1.796 1.798 0 3.626-11.975 8.49-13.47" stroke="#9C73FF"/><path d="M150.702 190.012s3.192 2.243 6.943 1.495c3.75-.748 4.315-8.895 7.707-10.691 3.392-1.796 3.746 1.796 5.544 1.796 1.798 0 3.627-11.975 8.49-13.47" stroke="#fff"/><path opacity=".48" fill-rule="evenodd" clip-rule="evenodd" d="M198.201 179.526l-30.472 17.594c-.805.464-1.292-.133-1.081-1.328l4.737-26.865c.211-1.195 1.042-2.553 1.847-3.018l30.472-17.593c.805-.465 1.292.133 1.081 1.328l-4.737 26.864c-.211 1.196-1.042 2.554-1.847 3.018z" fill="url(#paint0_linear)"/><defs><filter id="filter0_f" x="107.059" y="136.31" width="61.826" height="40.23" filterUnits="userSpaceOnUse" color-interpolation-filters="sRGB"><feFlood flood-opacity="0" result="BackgroundImageFix"/><feBlend in="SourceGraphic" in2="BackgroundImageFix" result="shape"/><feGaussianBlur stdDeviation="1.359" result="effect1_foregroundBlur"/></filter><filter id="filter1_f" x="49.83" y="155.385" width="61.826" height="40.23" filterUnits="userSpaceOnUse" color-interpolation-filters="sRGB"><feFlood flood-opacity="0" result="BackgroundImageFix"/><feBlend in="SourceGraphic" in2="BackgroundImageFix" result="shape"/><feGaussianBlur stdDeviation="1.359" result="effect1_foregroundBlur"/></filter><linearGradient id="paint0_linear" x1="185.758" y1="134.098" x2="149.059" y2="162.078" gradientUnits="userSpaceOnUse"><stop stop-color="#19FFF3"/><stop offset="1" stop-color="#00A4FF"/></linearGradient></defs></svg>