<svg width="214" height="275" viewBox="0 0 214 275" fill="none" xmlns="http://www.w3.org/2000/svg"><path opacity=".2" fill-rule="evenodd" clip-rule="evenodd" d="M164.086 0v139.863C129.721 186.215 72.252 225.541 0 253.09V113.228C72.252 85.68 129.721 46.352 164.086 0z" fill="#D5E9FF"/><mask id="mask0" maskUnits="userSpaceOnUse" x="54" y="199" width="71" height="76"><path fill-rule="evenodd" clip-rule="evenodd" d="M124.386 199.274H54.129v75.507h70.257v-75.507z" fill="#fff"/></mask><g mask="url(#mask0)"><path fill-rule="evenodd" clip-rule="evenodd" d="M124.386 222.337l-24.508-4.346-23.81-16.424c-6.781-4.061 3.24-2.263-3.545 1.777l5.88 6.788-24.274-8.597v41.901l.015-16.766c.081 2.588 1.762 5.163 5.067 7.143l35.52 21.146c6.781 4.06 17.779 4.077 24.564.037 3.477-2.071 5.161-4.804 5.076-7.524h.015v-25.135z" fill="#39475B"/></g><path fill-rule="evenodd" clip-rule="evenodd" d="M119.285 229.844c-6.797 4.043-17.815 4.026-24.607-.037l-35.586-21.159c-6.793-4.063-6.79-10.635.009-14.677 6.797-4.043 17.815-4.026 24.608.037l35.586 21.159c6.792 4.064 6.788 10.635-.01 14.677z" fill="#131313"/><g filter="url(#filter0_f)"><path d="M119.285 224.815v0c-6.797 4.042-17.815 4.026-24.607-.038l-35.586-21.159c-6.793-4.063-6.79-10.634.009-14.677 6.797-4.043 17.815-4.026 24.608.037l35.586 21.16c6.792 4.063 6.788 10.634-.01 14.677" stroke="#C6AFFF" stroke-width="3"/></g><path fill-rule="evenodd" clip-rule="evenodd" d="M135 163.528a8 8 0 003.992 6.924l64.502 37.335c4 2.316 9.006-.571 9.006-5.193v-53.122a8 8 0 00-3.992-6.924l-61.5-35.598c-5.334-3.087-12.008.762-12.008 6.924v49.654z" fill="#1D1D26" stroke="#fff" stroke-width="2"/><path fill-rule="evenodd" clip-rule="evenodd" d="M193.919 160.661c.245.908-.086 1.787-.739 1.963-.653.176-1.381-.417-1.626-1.325-.244-.908.087-1.787.74-1.963.653-.176 1.381.417 1.625 1.325z" fill="#B4EE73"/><path fill-rule="evenodd" clip-rule="evenodd" d="M148.446 155.609c.244.908-.087 1.786-.74 1.963-.653.176-1.381-.418-1.625-1.326-.245-.908.086-1.787.739-1.963.653-.176 1.381.418 1.626 1.326z" fill="#FF7362"/><path fill-rule="evenodd" clip-rule="evenodd" d="M168.656 145.503c.245.908-.086 1.787-.739 1.963-.653.176-1.381-.417-1.626-1.325-.245-.908.086-1.787.739-1.963.654-.176 1.381.417 1.626 1.325z" fill="#B4EE73"/><path fill-rule="evenodd" clip-rule="evenodd" d="M178.761 160.661c.245.908-.086 1.787-.739 1.963-.653.176-1.381-.417-1.625-1.325-.245-.908.086-1.787.739-1.963.653-.176 1.381.417 1.625 1.325z" fill="#FF7362"/><mask id="mask1" maskUnits="userSpaceOnUse" x="54" y="147" width="71" height="76"><path fill-rule="evenodd" clip-rule="evenodd" d="M124.386 147.299H54.129v75.507h70.257v-75.507z" fill="#fff"/></mask><g mask="url(#mask1)"><path fill-rule="evenodd" clip-rule="evenodd" d="M124.386 170.361l-24.508-4.345-23.811-16.425c-6.78-4.06 3.24-2.262-3.544 1.778l5.88 6.787-24.275-8.597v41.901h.016c.081 2.588 1.762 5.164 5.067 7.144l35.52 21.145c6.781 4.061 17.778 4.078 24.564.038 3.477-2.071 5.16-4.805 5.076-7.525h.015v-41.901z" fill="#39475B"/></g><path fill-rule="evenodd" clip-rule="evenodd" d="M119.285 177.869c-6.797 4.042-17.815 4.026-24.608-.037l-35.586-21.16c-6.792-4.063-6.788-10.634.01-14.677 6.797-4.042 17.815-4.026 24.608.038l35.585 21.159c6.793 4.063 6.789 10.634-.009 14.677z" fill="#131313"/><g filter="url(#filter1_f)"><path d="M119.285 172.839v0c-6.797 4.043-17.815 4.026-24.608-.037l-35.586-21.159c-6.792-4.064-6.788-10.635.01-14.677 6.797-4.043 17.815-4.027 24.608.037l35.585 21.159c6.793 4.063 6.789 10.634-.009 14.677" stroke="#C6AFFF" stroke-width="3"/></g><mask id="mask2" maskUnits="userSpaceOnUse" x="54" y="97" width="71" height="76"><path fill-rule="evenodd" clip-rule="evenodd" d="M124.386 97H54.129v75.507h70.257V97z" fill="#fff"/></mask><g mask="url(#mask2)"><path fill-rule="evenodd" clip-rule="evenodd" d="M124.386 145.212l-24.508-4.346-23.811-16.424c-6.78-4.061 3.24-2.263-3.544 1.777l5.88 6.788-24.275-8.597v16.751h.016c.081 2.588 1.762 5.164 5.067 7.144l35.52 21.145c6.781 4.061 17.778 4.078 24.564.038 3.477-2.071 5.16-4.804 5.076-7.525h.015v-16.751z" fill="#39475B"/></g><path fill-rule="evenodd" clip-rule="evenodd" d="M119.285 152.72c-6.797 4.042-17.815 4.026-24.608-.038l-35.586-21.159c-6.792-4.063-6.788-10.634.01-14.677 6.797-4.043 17.815-4.026 24.608.037l35.585 21.16c6.793 4.063 6.789 10.634-.009 14.677z" fill="#8091A9"/><defs><filter id="filter0_f" x="49.781" y="181.702" width="78.823" height="50.352" filterUnits="userSpaceOnUse" color-interpolation-filters="sRGB"><feFlood flood-opacity="0" result="BackgroundImageFix"/><feBlend in="SourceGraphic" in2="BackgroundImageFix" result="shape"/><feGaussianBlur stdDeviation="1.359" result="effect1_foregroundBlur"/></filter><filter id="filter1_f" x="49.781" y="129.726" width="78.823" height="50.352" filterUnits="userSpaceOnUse" color-interpolation-filters="sRGB"><feFlood flood-opacity="0" result="BackgroundImageFix"/><feBlend in="SourceGraphic" in2="BackgroundImageFix" result="shape"/><feGaussianBlur stdDeviation="1.359" result="effect1_foregroundBlur"/></filter></defs></svg>