<svg width="213" height="212" viewBox="0 0 213 212" fill="none" xmlns="http://www.w3.org/2000/svg"><mask id="mask0" maskUnits="userSpaceOnUse" x="56" y="121" width="84" height="91"><path fill-rule="evenodd" clip-rule="evenodd" d="M139.962 121H56.154v90.07h83.808V121z" fill="#fff"/></mask><g mask="url(#mask0)"><path fill-rule="evenodd" clip-rule="evenodd" d="M139.962 148.51l-29.235-5.183-28.403-19.592c-8.088-4.844 3.866-2.699-4.228 2.12l7.015 8.097-28.957-10.256v49.983l.019-20c.096 3.087 2.1 6.159 6.044 8.521l42.371 25.224c8.089 4.844 21.207 4.864 29.301.044 4.147-2.469 6.156-5.73 6.054-8.975h.019V148.51z" fill="#39475B"/></g><path fill-rule="evenodd" clip-rule="evenodd" d="M133.877 157.466c-8.108 4.822-21.251 4.803-29.354-.044l-42.449-25.241c-8.103-4.846-8.098-12.685.01-17.507 8.11-4.823 21.252-4.803 29.355.044l42.449 25.24c8.103 4.847 8.098 12.686-.011 17.508z" fill="#8091A9"/><g filter="url(#filter0_f)"><path d="M133.877 151.466v0c-8.108 4.822-21.251 4.803-29.354-.044l-42.449-25.241c-8.103-4.846-8.098-12.685.01-17.507 8.11-4.823 21.252-4.803 29.355.044l42.449 25.24c8.103 4.847 8.098 12.686-.011 17.508" stroke="#9EF81E" stroke-width="3"/></g><mask id="mask1" maskUnits="userSpaceOnUse" x="56" y="59" width="84" height="91"><path fill-rule="evenodd" clip-rule="evenodd" d="M139.962 59H56.154v90.07h83.808V59z" fill="#fff"/></mask><g mask="url(#mask1)"><path fill-rule="evenodd" clip-rule="evenodd" d="M139.962 116.51l-29.235-5.183-28.403-19.592c-8.088-4.844 3.866-2.7-4.228 2.12l7.015 8.097-28.957-10.256v19.983h.019c.096 3.087 2.1 6.159 6.044 8.521l42.371 25.224c8.089 4.844 21.207 4.864 29.301.044 4.147-2.469 6.156-5.73 6.054-8.975h.019V116.51z" fill="#39475B"/></g><path fill-rule="evenodd" clip-rule="evenodd" d="M133.877 125.466c-8.108 4.822-21.251 4.803-29.354-.044l-42.449-25.241c-8.103-4.846-8.098-12.685.01-17.507 8.11-4.823 21.252-4.803 29.355.044l42.449 25.24c8.103 4.847 8.098 12.686-.011 17.508z" fill="#8091A9"/><g filter="url(#filter1_f)"><path d="M133.877 119.466v0c-8.108 4.822-21.251 4.803-29.354-.044l-42.449-25.24c-8.103-4.847-8.098-12.686.01-17.508 8.11-4.823 21.252-4.803 29.355.044l42.449 25.24c8.103 4.847 8.098 12.686-.011 17.508" stroke="#9EF81E" stroke-width="3"/></g><mask id="mask2" maskUnits="userSpaceOnUse" x="56" y="29" width="84" height="91"><path fill-rule="evenodd" clip-rule="evenodd" d="M139.962 29H56.154v90.07h83.808V29z" fill="#fff"/></mask><g mask="url(#mask2)"><path fill-rule="evenodd" clip-rule="evenodd" d="M139.962 86.51l-29.235-5.183-28.403-19.592c-8.088-4.844 3.866-2.7-4.228 2.12l7.015 8.097-28.957-10.256V81.68h.019c.096 3.087 2.1 6.16 6.044 8.52l42.371 25.225c8.089 4.844 21.207 4.864 29.301.044 4.147-2.469 6.156-5.73 6.054-8.975h.019V86.51z" fill="#39475B"/></g><path fill-rule="evenodd" clip-rule="evenodd" d="M133.877 95.466c-8.108 4.822-21.251 4.803-29.354-.044l-42.449-25.24c-8.103-4.847-8.098-12.686.01-17.508 8.11-4.823 21.252-4.803 29.355.044l42.449 25.24c8.103 4.847 8.098 12.686-.011 17.508z" fill="#8091A9"/><path d="M132 56.82s5.02 3.528 10.918 2.352c5.898-1.176 6.787-13.988 12.121-16.813 5.334-2.824 5.891 2.825 8.719 2.825 2.828 0 5.703-18.832 13.351-21.184" stroke="#fff"/><path d="M163 122.82s5.02 3.528 10.918 2.352c5.898-1.176 6.787-13.988 12.121-16.813 5.334-2.824 5.891 2.825 8.719 2.825 2.828 0 5.703-18.832 13.351-21.184" stroke="#9C73FF"/><path d="M1 188.82s5.02 3.528 10.918 2.352c5.898-1.176 6.787-13.988 12.121-16.813 5.334-2.824 5.89 2.825 8.719 2.825 2.828 0 5.703-18.832 13.351-21.184" stroke="#fff"/><path opacity=".48" fill-rule="evenodd" clip-rule="evenodd" d="M175.279 53.876L122.94 84.094c-1.382.799-2.217-.228-1.856-2.28l8.137-46.142c.361-2.053 1.789-4.385 3.172-5.184L184.731.27c1.383-.799 2.218.228 1.856 2.28l-8.136 46.142c-.362 2.053-1.79 4.385-3.172 5.183z" fill="url(#paint0_linear)"/><path opacity=".48" fill-rule="evenodd" clip-rule="evenodd" d="M202.931 117.591l-44.289 25.57c-1.17.675-1.877-.193-1.57-1.93l6.884-39.045c.306-1.737 1.514-3.71 2.684-4.387l44.289-25.57c1.17-.675 1.877.193 1.571 1.93l-6.885 39.045c-.306 1.738-1.514 3.711-2.684 4.387z" fill="url(#paint1_linear)"/><path opacity=".48" fill-rule="evenodd" clip-rule="evenodd" d="M75.7 172.33l-47.923 27.669c-1.266.73-2.031-.21-1.7-2.089l7.45-42.248c.331-1.88 1.638-4.015 2.904-4.747l47.922-27.667c1.266-.731 2.031.209 1.7 2.088l-7.45 42.248c-.331 1.88-1.638 4.016-2.904 4.746z" fill="url(#paint2_linear)"/><defs><linearGradient id="paint0_linear" x1="153.907" y1="-24.151" x2="90.875" y2="23.907" gradientUnits="userSpaceOnUse"><stop stop-color="#19FFF3"/><stop offset="1" stop-color="#00A4FF"/></linearGradient><linearGradient id="paint1_linear" x1="184.846" y1="51.564" x2="131.508" y2="92.23" gradientUnits="userSpaceOnUse"><stop stop-color="#19FFF3"/><stop offset="1" stop-color="#00A4FF"/></linearGradient><linearGradient id="paint2_linear" x1="56.13" y1="100.887" x2="-1.583" y2="144.89" gradientUnits="userSpaceOnUse"><stop stop-color="#19FFF3"/><stop offset="1" stop-color="#00A4FF"/></linearGradient><filter id="filter0_f" x="51.782" y="100.852" width="92.399" height="58.437" filterUnits="userSpaceOnUse" color-interpolation-filters="sRGB"><feFlood flood-opacity="0" result="BackgroundImageFix"/><feBlend in="SourceGraphic" in2="BackgroundImageFix" result="shape"/><feGaussianBlur stdDeviation="1.359" result="effect1_foregroundBlur"/></filter><filter id="filter1_f" x="51.782" y="68.852" width="92.399" height="58.437" filterUnits="userSpaceOnUse" color-interpolation-filters="sRGB"><feFlood flood-opacity="0" result="BackgroundImageFix"/><feBlend in="SourceGraphic" in2="BackgroundImageFix" result="shape"/><feGaussianBlur stdDeviation="1.359" result="effect1_foregroundBlur"/></filter></defs></svg>