<svg width="22" height="28" viewBox="0 0 22 28" fill="none" xmlns="http://www.w3.org/2000/svg"><path fill-rule="evenodd" clip-rule="evenodd" d="M20.947 15.552c0 .822-.446 1.58-1.165 1.98l-16.31 9.065a1.7 1.7 0 01-2.525-1.485V12.448c0-.822.446-1.58 1.165-1.98L17.58 1.871c1.51-.84 3.366.252 3.366 1.98v11.7z" fill="#1D1D26" stroke="#fff" stroke-width=".566"/><path fill-rule="evenodd" clip-rule="evenodd" d="M5.742 15.031c-.064.225.022.443.19.487.169.043.357-.104.42-.329.063-.225-.022-.442-.19-.486-.17-.044-.357.103-.42.328" fill="#B4EE73"/><path fill-rule="evenodd" clip-rule="evenodd" d="M17.477 13.78c-.063.224.022.442.19.486.17.043.357-.104.42-.329.064-.225-.022-.443-.19-.486-.169-.044-.357.103-.42.328" fill="#FF7362"/><path fill-rule="evenodd" clip-rule="evenodd" d="M12.261 11.275c-.063.225.022.443.191.486.168.044.356-.103.42-.328.063-.225-.023-.443-.191-.486-.169-.044-.357.103-.42.328" fill="#B4EE73"/><path fill-rule="evenodd" clip-rule="evenodd" d="M9.654 15.031c-.064.225.022.443.19.487.169.043.357-.104.42-.329.063-.225-.022-.442-.19-.486-.17-.044-.357.103-.42.328" fill="#FF7362"/></svg>