<svg width="22" height="24" viewBox="0 0 22 24" fill="none" xmlns="http://www.w3.org/2000/svg"><path opacity=".48" fill-rule="evenodd" clip-rule="evenodd" d="M16.03 15.327L.573 23.923c-.408.227-.655-.065-.548-.649l2.403-13.126c.107-.584.528-1.248.936-1.475L18.821.077c.409-.227.655.065.548.649l-2.402 13.126c-.107.584-.529 1.248-.937 1.475" fill="url(#paint0_linear)"/><path d="M6.45 14.857s1.62 1.096 3.522.731c1.902-.365 2.189-4.346 3.91-5.223 1.72-.878 1.9.877 2.812.877.912 0 1.839-5.851 4.306-6.582" stroke="#9E35F0" stroke-width=".507"/><defs><linearGradient id="paint0_linear" x1="9.718" y1="-6.87" x2="-8.38" y2="7.454" gradientUnits="userSpaceOnUse"><stop stop-color="#19FF30"/><stop offset="1" stop-color="#00FFB2"/></linearGradient></defs></svg>