<svg width="64" height="47" viewBox="0 0 64 47" fill="none" xmlns="http://www.w3.org/2000/svg"><g clip-path="url(#clip0)"><path d="M63.1 1.9v42.2c-20-6.4-40.1 5.5-60.1.8-1-.2-2-.5-3-.8V1.9c1 .3 2 .6 3 .8 20 4.8 40.1-7.2 60.1-.8z" fill="#21468B"/><path d="M63.1 30.1v14c-20-6.4-40.1 5.5-60.1.8-1-.2-2-.5-3-.8v-14c1 .3 2 .6 3 .8 20 4.7 40.1-7.2 60.1-.8z" fill="#D44831"/><path d="M63.1 1.9v14c-20-6.4-40.1 5.6-60.1.9-1-.2-2-.5-3-.8V2c1 .3 2 .6 3 .8 20 4.7 40.1-7.3 60.1-.9z" fill="#EDEDED"/></g><defs><clipPath id="clip0"><path fill="#fff" d="M0 0h63.1v46.1H0z"/></clipPath></defs></svg>